<svg width="17" height="16" viewBox="0 0 17 16" fill="none" xmlns="http://www.w3.org/2000/svg">
<path d="M2.58546 12.4057H6.92786L8.36386 15.2774C8.41811 15.3858 8.52874 15.4542 8.64999 15.4542C8.77124 15.4542 8.88186 15.3857 8.93624 15.2773L10.3722 12.4056H14.7146C15.7818 12.4057 16.6499 11.5374 16.6499 10.4702V2.58539C16.6499 1.51825 15.7818 0.649902 14.7145 0.649902L2.58526 0.650027C1.518 0.650027 0.649902 1.51828 0.649902 2.58539V10.4702C0.649902 11.5375 1.51803 12.4057 2.58526 12.4057L2.58546 12.4057ZM1.2901 2.5852C1.2901 1.87083 1.8711 1.28984 2.58546 1.28984H14.7147C15.429 1.28984 16.01 1.87083 16.01 2.5852V10.47C16.01 11.1844 15.429 11.7655 14.7146 11.7655H10.1745C10.0532 11.7655 9.94261 11.834 9.88824 11.9424L8.65013 14.4186L7.41201 11.9424C7.35764 11.8339 7.24702 11.7655 7.12577 11.7655H2.58561C1.87124 11.7655 1.29024 11.1844 1.29024 10.47L1.2901 2.5852Z" fill="#333333"/>
<path d="M4.68688 4.40984H12.381C12.5578 4.40984 12.701 4.26659 12.701 4.08984C12.701 3.91309 12.5578 3.76984 12.381 3.76984H4.68688C4.51001 3.76984 4.36688 3.91309 4.36688 4.08984C4.36688 4.26646 4.51001 4.40984 4.68688 4.40984Z" fill="#333333"/>
<path d="M4.68688 6.84792H12.381C12.5578 6.84792 12.701 6.70467 12.701 6.52792C12.701 6.35117 12.5578 6.20792 12.381 6.20792H4.68688C4.51001 6.20792 4.36688 6.35117 4.36688 6.52792C4.36688 6.70467 4.51001 6.84792 4.68688 6.84792Z" fill="#333333"/>
<path d="M4.68688 9.28569H12.381C12.5578 9.28569 12.701 9.14244 12.701 8.96569C12.701 8.78894 12.5578 8.64569 12.381 8.64569H4.68688C4.51001 8.64569 4.36688 8.78894 4.36688 8.96569C4.36688 9.14244 4.51001 9.28569 4.68688 9.28569Z" fill="#333333"/>
</svg>
