<?xml version="1.0" encoding="UTF-8"?>
<svg xmlns="http://www.w3.org/2000/svg" xmlns:xlink="http://www.w3.org/1999/xlink" width="14px" height="14px" viewBox="0 0 14 14" version="1.1">
<g id="surface1">
<path style=" stroke:none;fill-rule:nonzero;fill:rgb(0%,0%,0%);fill-opacity:1;" d="M 7 7 C 8.449219 7 9.625 5.824219 9.625 4.375 C 9.625 2.925781 8.449219 1.75 7 1.75 C 5.550781 1.75 4.375 2.925781 4.375 4.375 C 4.375 5.824219 5.550781 7 7 7 Z M 8.75 4.375 C 8.75 5.339844 7.964844 6.125 7 6.125 C 6.035156 6.125 5.25 5.339844 5.25 4.375 C 5.25 3.410156 6.035156 2.625 7 2.625 C 7.964844 2.625 8.75 3.410156 8.75 4.375 Z M 12.25 11.375 C 12.25 12.25 11.375 12.25 11.375 12.25 L 2.625 12.25 C 2.625 12.25 1.75 12.25 1.75 11.375 C 1.75 10.5 2.625 7.875 7 7.875 C 11.375 7.875 12.25 10.5 12.25 11.375 Z M 11.375 11.371094 C 11.375 11.15625 11.242188 10.507812 10.648438 9.914062 C 10.078125 9.34375 9.003906 8.75 7 8.75 C 4.996094 8.75 3.921875 9.34375 3.351562 9.914062 C 2.757812 10.507812 2.625 11.15625 2.625 11.371094 Z M 11.375 11.371094 "/>
</g>
</svg>
