<svg width="18" height="17" viewBox="0 0 18 17" fill="none" xmlns="http://www.w3.org/2000/svg">
<path d="M8.80747 0.684423C8.86217 0.489967 9.13783 0.489966 9.19253 0.684422L10.7823 6.33601C10.8074 6.42513 10.8903 6.48539 10.9828 6.4817L16.8491 6.24724C17.0509 6.23917 17.1361 6.50134 16.9681 6.61345L12.0844 9.87187C12.0074 9.92325 11.9757 10.0208 12.0078 10.1076L14.0435 15.6143C14.1136 15.8037 13.8906 15.9658 13.732 15.8406L9.12393 12.2028C9.05126 12.1455 8.94874 12.1455 8.87608 12.2028L4.26798 15.8406C4.10943 15.9658 3.88642 15.8037 3.95647 15.6143L5.99222 10.1076C6.02432 10.0208 5.99264 9.92325 5.91563 9.87187L1.03192 6.61345C0.863887 6.50134 0.949068 6.23917 1.15091 6.24724L7.01717 6.4817C7.10966 6.48539 7.19261 6.42513 7.21768 6.33601L8.80747 0.684423Z" stroke="#333333" stroke-width="0.6"/>
</svg>
