<?xml version="1.0" encoding="UTF-8"?>
<svg xmlns="http://www.w3.org/2000/svg" xmlns:xlink="http://www.w3.org/1999/xlink" width="14px" height="14px" viewBox="0 0 14 14" version="1.1">
<g id="surface1">
<path style=" stroke:none;fill-rule:nonzero;fill:rgb(0%,0%,0%);fill-opacity:1;" d="M 5.25 4.082031 L 6.417969 4.082031 L 6.417969 7 L 9.332031 7 L 9.332031 8.167969 L 5.25 8.167969 Z M 5.25 4.082031 "/>
<path style=" stroke:none;fill-rule:evenodd;fill:rgb(0%,0%,0%);fill-opacity:1;" d="M 12.832031 7 C 12.832031 10.222656 10.222656 12.832031 7 12.832031 C 3.777344 12.832031 1.167969 10.222656 1.167969 7 C 1.167969 3.777344 3.777344 1.167969 7 1.167969 C 10.222656 1.167969 12.832031 3.777344 12.832031 7 Z M 11.667969 7 C 11.667969 9.578125 9.578125 11.667969 7 11.667969 C 4.421875 11.667969 2.332031 9.578125 2.332031 7 C 2.332031 4.421875 4.421875 2.332031 7 2.332031 C 9.578125 2.332031 11.667969 4.421875 11.667969 7 Z M 11.667969 7 "/>
</g>
</svg>
